PathFileType	4	(X/Y/Z)	D:\TRACE\spotREDO_2-26-24\spot_Both_Motion_3_3-v60.trc
DataRate	CameraRate	NumFrames	NumMarkers	Units	OrigDataRate	OrigDataStartFrame	OrigNumFrames
100.00	100.00	      31	9	mm	100.00	1751	      7000
Frame#	Time	front left toe			Front right toe			aft left toe			aft right toe			Arm			FL body			FR body			AL Body			AR Body			
		X1	Y1	Z1	X2	Y2	Z2	X3	Y3	Z3	X4	Y4	Z4	X5	Y5	Z5	X6	Y6	Z6	X7	Y7	Z7	X8	Y8	Z8	X9	Y9	Z9	

1751	17.500	-142.47238	94.82020	-417.09827	270.78958	14.73243	-559.71344	-34.09071	20.12839	174.76009	314.19711	22.78444	139.55153	43.85149	681.01514	-764.65973	-18.74677	556.27802	-490.41971	134.79050	563.15485	-512.79980	99.94836	564.40875	385.33383	246.49529	560.07959	367.57327	
1752	17.510	-143.43071	84.07673	-418.33047	270.31805	14.87591	-559.97089	-34.31818	20.16996	174.83749	314.00525	22.92448	139.39075	44.37849	681.13672	-764.75934	-21.10474	556.41632	-490.15704	132.48235	563.29608	-512.88916	99.44354	564.51880	385.43344	246.06972	560.26038	367.43842	
1753	17.520	-144.31242	72.39219	-419.10757	269.81134	14.98424	-560.13062	-34.84399	20.16913	174.82329	313.77838	23.07199	139.26920	45.14699	681.10199	-764.94604	-22.71755	556.64026	-489.95471	130.64894	563.46368	-512.69586	98.45653	564.51196	385.60059	244.80269	560.33685	366.77615	
1754	17.530	-144.91475	61.57363	-419.45435	269.92810	15.12055	-559.94934	-35.57652	20.15809	174.92564	313.50162	23.14332	139.19041	45.37562	680.94757	-765.08246	-24.60408	556.57007	-489.86768	128.97768	563.60168	-512.74164	96.71419	564.47156	385.77243	243.11287	560.53375	367.44437	
1755	17.540	-145.21681	50.91164	-419.61200	270.00049	15.01933	-559.86981	-34.68333	19.60002	174.97850	313.23172	23.29023	139.19405	45.80019	680.82507	-765.24310	-26.08611	556.26678	-490.07703	127.12473	563.35004	-512.71210	94.69616	564.41675	385.74161	241.20946	560.63348	367.39175	
1756	17.550	-145.96387	40.20646	-419.65240	270.18411	14.99313	-559.78693	-35.05116	19.47159	175.03072	311.89923	23.02390	138.83064	45.96236	680.71594	-765.35895	-27.58192	556.24615	-490.23679	125.94681	563.17963	-512.80658	92.56944	564.31036	385.66885	238.98657	560.81549	367.58698	
1757	17.560	-146.79332	30.20358	-419.84244	270.21600	14.95300	-559.78522	-35.34831	19.50143	175.06644	312.09729	23.26552	138.97804	45.99743	680.60632	-765.41498	-29.03453	555.82782	-490.48465	123.97979	563.28107	-512.71082	90.07559	564.46899	385.41953	237.09612	560.99164	367.87680	
1758	17.570	-148.10529	20.40941	-420.47220	270.21387	14.88680	-559.71094	-35.39033	19.35153	174.91838	312.84372	23.64441	139.40298	45.74707	680.51196	-765.45099	-30.31944	555.59717	-490.88116	122.95830	562.64087	-513.09564	87.45963	564.35742	385.17331	233.87833	560.83917	367.37341	
1759	17.580	-148.72455	17.74231	-422.96628	270.22672	14.87555	-559.69226	-35.59216	19.23445	174.92459	311.87555	23.41799	139.14667	45.27709	680.39966	-765.44885	-31.73093	555.66681	-491.25455	121.78791	562.62982	-513.07410	85.25755	564.12274	384.75479	231.30283	560.73755	367.52023	
1760	17.590	-150.22610	18.33954	-421.88559	269.82767	14.95711	-559.76300	-35.97376	19.11618	174.83444	312.66891	23.40163	139.51909	44.85535	680.22156	-765.38391	-33.77057	556.59772	-491.52292	119.59055	563.32770	-513.22675	82.19237	564.03290	384.67410	229.08115	559.94879	367.49149	
1761	17.600	-150.16277	18.04566	-421.76611	269.27325	16.55642	-559.78259	-36.35478	17.86129	174.83334	312.01331	24.69341	139.04552	44.03697	680.68396	-765.26135	-35.64595	557.74170	-491.68750	117.71480	564.07269	-513.41687	79.97382	563.67065	384.70718	226.64639	559.47675	367.30844	
1762	17.610	-150.41556	18.23524	-421.46780	267.98410	16.97991	-559.95972	-37.11632	17.52672	175.23074	310.35959	24.87947	139.18594	43.30892	681.22900	-764.56696	-37.72351	558.79218	-491.93414	116.11947	564.45728	-513.66846	78.21495	563.99115	384.45038	224.35104	558.80963	367.08078	
1763	17.620	-150.63252	18.10844	-421.69495	267.83261	17.14057	-559.72406	-37.31170	17.50173	175.03505	310.15427	25.06570	139.28679	42.91037	681.71228	-764.37830	-39.40934	559.63800	-492.22192	114.27848	564.86847	-514.06506	76.01188	564.17914	384.14957	222.87744	558.53900	367.10852	
1764	17.630	-150.81253	17.81168	-421.76230	267.89127	17.09612	-559.60455	-37.20779	17.60448	174.92447	310.25082	25.03634	139.21292	42.81887	681.83563	-764.32587	-41.02580	560.29248	-492.55594	112.99547	564.99036	-513.92767	73.88555	564.29517	384.02185	220.14546	558.49982	366.67758	
1765	17.640	-150.87762	17.79769	-421.81149	267.75681	16.92250	-559.68372	-37.64392	17.45321	174.98242	309.98724	25.07426	139.18144	42.91539	681.65540	-764.16644	-43.00650	560.94519	-492.98874	111.17832	564.96649	-514.53442	72.16434	564.78033	383.63123	218.65628	558.33972	366.52249	
1766	17.650	-151.00610	17.66918	-421.73016	267.68372	17.19027	-559.75836	-38.06099	17.47792	174.95540	309.80441	25.33328	139.33942	43.33729	681.48273	-764.54858	-44.21046	561.24231	-493.21893	109.81578	565.18463	-514.89642	70.62562	565.04956	383.33813	217.60779	558.62195	366.38306	
1767	17.660	-151.15530	17.49021	-421.55234	267.73068	17.59385	-559.70099	-38.00173	17.37984	174.91307	309.76578	25.30851	139.32932	43.79411	681.61279	-764.83484	-46.05591	561.70801	-494.26700	108.25265	565.39795	-515.47040	69.16313	565.09857	382.87814	215.77196	558.93842	365.63321	
1768	17.670	-151.15254	17.41253	-421.39194	267.57785	17.79447	-559.68701	-38.05223	17.41024	174.94414	309.73874	25.33574	139.25890	43.79615	681.74756	-764.91614	-46.69123	561.58295	-494.08673	107.27493	565.70056	-515.66870	67.73424	565.36072	382.34442	214.15038	558.96204	365.22583	
1769	17.680	-151.43364	17.43658	-421.39105	267.45810	17.99355	-559.73792	-38.21313	17.23850	174.90674	309.73218	25.38947	139.28537	43.54995	681.83765	-765.32037	-47.85147	561.70074	-494.56290	106.23309	565.93579	-516.09509	66.92834	565.55536	381.94977	213.01700	559.12494	364.87741	
1770	17.690	-151.52864	17.46114	-421.42737	267.38690	18.17274	-559.63696	-38.38020	17.09986	174.82593	309.62372	25.49222	139.27725	42.83593	681.98395	-765.86389	-48.98923	561.85339	-495.03015	105.11694	566.20160	-516.66693	65.51437	565.80188	381.45239	211.98575	559.34589	364.30191	
1771	17.700	-151.52490	17.58546	-421.43826	267.06183	18.16980	-559.82123	-38.38910	17.10006	174.77481	309.35388	25.50069	139.23628	42.25528	682.22369	-765.82593	-49.60065	562.00708	-495.70969	104.53636	566.29401	-516.92963	64.35562	565.97437	380.98663	211.03813	559.66931	363.97797	
1772	17.710	-151.60385	17.72151	-421.47113	267.21097	18.32849	-559.68237	-38.50713	17.05189	174.78954	309.22894	25.49028	139.19473	41.49541	682.41870	-765.87750	-50.36061	562.10834	-496.44601	103.78141	566.52393	-517.59851	63.32506	566.08630	380.42767	209.67068	559.99811	363.28394	
1773	17.720	-151.63962	17.80193	-421.52097	267.15863	18.36197	-559.70123	-38.51337	16.97113	174.75784	308.99478	25.31397	139.06038	41.01035	682.52753	-765.99658	-51.17596	562.08508	-496.89618	103.01132	566.69659	-518.27307	62.42679	565.98511	379.87424	208.95592	560.06439	362.79337	
1774	17.730	-151.67950	17.64524	-421.47641	266.97321	18.37625	-559.80457	-38.53562	16.96653	174.77106	308.94864	25.31798	139.04750	40.34163	682.50848	-766.26373	-51.69637	562.01544	-497.53769	102.51043	566.65887	-518.65625	61.84080	566.02130	379.14548	208.55440	560.24695	362.25354	
1775	17.740	-151.80879	17.61680	-421.46735	266.91821	18.39069	-559.83276	-38.56686	17.00525	174.75185	309.19482	25.41863	139.07867	39.78217	682.61261	-766.42627	-52.42078	562.03809	-498.19376	101.36831	566.76898	-519.58051	61.40023	565.99084	378.54623	207.79150	560.49323	361.43341	
1776	17.750	-151.96387	17.59418	-421.46802	266.97412	18.52592	-559.77637	-38.53036	17.01177	174.75507	309.08777	25.36590	138.96213	39.43799	682.45905	-766.72260	-53.24709	561.84680	-498.68573	100.83141	566.99774	-520.30383	61.16328	566.04431	377.92444	207.62520	560.65485	360.67999	
1777	17.760	-152.10069	17.64011	-421.52396	266.71536	18.60757	-559.90234	-38.54292	17.00322	174.76370	309.06238	25.28072	138.81682	39.23465	682.44391	-766.86957	-54.36953	562.14722	-500.07709	100.09882	567.02301	-521.05121	60.99393	566.10974	377.19119	207.49356	560.62598	360.10913	
1778	17.770	-152.17352	17.61204	-421.40637	266.57120	18.81405	-559.99017	-38.53002	16.96786	174.68733	308.96658	25.17694	138.72264	39.33125	682.34033	-766.97931	-54.45798	562.03387	-500.07816	99.36508	567.06677	-521.77100	60.99187	566.04767	376.49985	207.16383	560.69470	359.11435	
1779	17.780	-152.21313	17.60645	-421.39102	266.35474	18.90481	-560.04480	-38.50292	17.00938	174.78014	308.86050	25.08690	138.69447	39.51088	682.33398	-767.02997	-55.23793	561.98846	-500.63028	98.80489	567.14398	-522.46027	60.95040	565.97473	375.75287	207.18874	560.74170	358.37982	
1780	17.790	-152.29906	17.63669	-421.36057	266.54987	19.11321	-560.06061	-38.47228	16.99517	174.74489	308.92432	24.98475	138.70773	39.82401	682.32678	-767.06415	-55.69531	561.93469	-501.38635	98.17117	567.20032	-523.33307	60.82093	565.92670	375.09885	207.00386	560.50842	357.58606	
1781	17.800	-152.36171	17.74234	-421.39462	266.50443	19.14978	-560.08923	-38.61893	17.00678	174.71295	308.78516	24.91223	138.67789	39.92124	682.32410	-766.91833	-56.18235	562.01086	-502.09708	97.86929	567.27313	-524.06293	60.59642	565.86450	374.33170	206.87817	560.56543	356.72705	
